<svg width="198" height="32" viewBox="0 0 198 32" fill="none" xmlns="http://www.w3.org/2000/svg">
<path d="M197.013 9.28418H184.123V23.8594H197.013V21.1884H186.714V17.9073H195.009V15.2363H186.714V11.9552H197.013V9.28418ZM179.37 21.047C179.37 21.1289 179.313 21.1884 179.234 21.1884H170.645C170.567 21.1884 170.509 21.1289 170.509 21.047V17.9073C170.509 17.8254 170.567 17.7882 170.645 17.7882H179.234C179.313 17.7882 179.37 17.8254 179.37 17.9073V21.047ZM178.69 11.9552C178.748 11.9552 178.805 12.0147 178.805 12.0965V14.9536C178.805 15.0354 178.748 15.0949 178.69 15.0949H170.645C170.567 15.0949 170.509 15.0354 170.509 14.9536V12.0965C170.509 12.0147 170.567 11.9552 170.645 11.9552H178.69ZM181.396 12.0965C181.396 10.5416 180.172 9.28418 178.69 9.28418H167.94V23.8594H179.234C180.737 23.8594 181.961 22.602 181.961 21.047V17.9073C181.961 17.1782 181.646 16.4713 181.203 15.9877C181.339 15.6827 181.396 15.3404 181.396 14.9536V12.0965ZM163.152 21.047C163.152 21.1289 163.094 21.1884 163.037 21.1884H154.427C154.348 21.1884 154.291 21.1289 154.291 21.047V9.28418H151.721V21.047C151.721 22.602 152.931 23.8594 154.427 23.8594H163.037C164.519 23.8594 165.743 22.602 165.743 21.047V9.28418H163.152V21.047ZM149.732 11.9552V9.28418H138.459C136.963 9.28418 135.753 10.5416 135.753 12.0965V21.047C135.753 22.602 136.963 23.8594 138.459 23.8594H149.732V21.1884H138.459C138.38 21.1884 138.323 21.1289 138.323 21.047V12.0965C138.323 12.0147 138.38 11.9552 138.459 11.9552H149.732ZM124.982 21.047C124.982 21.1289 124.924 21.1884 124.846 21.1884H116.257C116.178 21.1884 116.121 21.1289 116.121 21.047V12.0965C116.121 12.0147 116.178 11.9552 116.257 11.9552H124.846C124.924 11.9552 124.982 12.0147 124.982 12.0965V21.047ZM113.551 9.28418V23.8594H124.846C126.342 23.8594 127.573 22.602 127.573 21.047V12.0965C127.573 10.5416 126.349 9.28418 124.846 9.28418H113.551ZM111.526 9.28418H98.6355V23.8594H111.526V21.1884H101.226V17.9073H109.522V15.2363H101.226V11.9552H111.526V9.28418ZM93.8257 21.047C93.8257 21.1289 93.7685 21.1884 93.6898 21.1884H85.1009C85.0222 21.1884 84.965 21.1289 84.965 21.047V12.0965C84.965 12.0147 85.0222 11.9552 85.1009 11.9552H93.6898C93.7685 11.9552 93.8257 12.0147 93.8257 12.0965V21.047ZM82.3955 9.28418V23.8594H93.6898C95.1928 23.8594 96.4167 22.602 96.4167 21.047V12.0965C96.4167 10.5416 95.1928 9.28418 93.6898 9.28418H82.3955ZM78.0868 23.8594H80.6562V9.28418H78.0868V23.8594ZM75.9897 12.0965C75.9897 10.5416 74.7658 9.28418 73.2842 9.28418H64.6739C63.178 9.28418 61.9684 10.5416 61.9684 12.0965V15.0949C61.9684 16.6574 63.178 17.9073 64.6739 17.9073H73.2842C73.3414 17.9073 73.3987 17.9668 73.3987 18.0487V21.047C73.3987 21.1289 73.3414 21.1884 73.2842 21.1884H64.6739C64.5952 21.1884 64.5379 21.1289 64.5379 21.047V19.931H61.9684V21.047C61.9684 22.602 63.178 23.8594 64.6739 23.8594H73.2842C74.7658 23.8594 75.9897 22.602 75.9897 21.047V18.0487C75.9897 16.4937 74.7658 15.2363 73.2842 15.2363H64.6739C64.5952 15.2363 64.5379 15.1768 64.5379 15.0949V12.0965C64.5379 12.0147 64.5952 11.9552 64.6739 11.9552H73.2842C73.3414 11.9552 73.3987 12.0147 73.3987 12.0965V13.2126H75.9897V12.0965ZM53.2579 12.0742C53.2579 10.5341 52.0484 9.28418 50.5739 9.28418H42.6078C41.1263 9.28418 39.9238 10.5416 39.9238 12.0742V13.1233H42.4718V12.0742C42.4718 11.9924 42.5291 11.9329 42.6078 11.9329H50.5739C50.6527 11.9329 50.7099 11.9924 50.7099 12.0742V14.9908C50.7099 15.0503 50.6527 15.1098 50.5739 15.1098H42.3358V17.7659H51.1394C51.1966 17.7659 51.2539 17.8254 51.2539 17.9073V21.0619C51.2539 21.1437 51.1966 21.2033 51.1394 21.2033H42.6078C42.5291 21.2033 42.4718 21.1437 42.4718 21.0619V20.1914H39.9238V21.0619C39.9238 22.602 41.1334 23.852 42.6078 23.852H51.1394C52.6209 23.852 53.8091 22.5946 53.8091 21.0619V17.9073C53.8091 17.1782 53.5156 16.4937 53.0719 16.0026C53.2078 15.6976 53.2651 15.3553 53.2651 14.9908V12.0742H53.2579Z" fill="white"/>
<mask id="mask0_2811_4338" style="mask-type:luminance" maskUnits="userSpaceOnUse" x="39" y="9" width="159" height="15">
<path d="M197.018 9.28418H184.128V23.8594H197.018V21.1884H186.719V17.9073H195.014V15.2363H186.719V11.9552H197.018V9.28418ZM179.375 21.047C179.375 21.1289 179.318 21.1884 179.239 21.1884H170.65C170.572 21.1884 170.514 21.1289 170.514 21.047V17.9073C170.514 17.8254 170.572 17.7882 170.65 17.7882H179.239C179.318 17.7882 179.375 17.8254 179.375 17.9073V21.047ZM178.695 11.9552C178.752 11.9552 178.81 12.0147 178.81 12.0965V14.9536C178.81 15.0354 178.752 15.0949 178.695 15.0949H170.65C170.572 15.0949 170.514 15.0354 170.514 14.9536V12.0965C170.514 12.0147 170.572 11.9552 170.65 11.9552H178.695ZM181.401 12.0965C181.401 10.5416 180.177 9.28418 178.695 9.28418H167.945V23.8594H179.239C180.742 23.8594 181.966 22.602 181.966 21.047V17.9073C181.966 17.1782 181.651 16.4713 181.207 15.9877C181.343 15.6827 181.401 15.3404 181.401 14.9536V12.0965ZM163.157 21.047C163.157 21.1289 163.099 21.1884 163.042 21.1884H154.432C154.353 21.1884 154.296 21.1289 154.296 21.047V9.28418H151.726V21.047C151.726 22.602 152.936 23.8594 154.432 23.8594H163.042C164.524 23.8594 165.748 22.602 165.748 21.047V9.28418H163.157V21.047ZM149.737 11.9552V9.28418H138.464C136.968 9.28418 135.758 10.5416 135.758 12.0965V21.047C135.758 22.602 136.968 23.8594 138.464 23.8594H149.737V21.1884H138.464C138.385 21.1884 138.328 21.1289 138.328 21.047V12.0965C138.328 12.0147 138.385 11.9552 138.464 11.9552H149.737ZM124.987 21.047C124.987 21.1289 124.929 21.1884 124.851 21.1884H116.262C116.183 21.1884 116.126 21.1289 116.126 21.047V12.0965C116.126 12.0147 116.183 11.9552 116.262 11.9552H124.851C124.929 11.9552 124.987 12.0147 124.987 12.0965V21.047ZM113.556 9.28418V23.8594H124.851C126.346 23.8594 127.577 22.602 127.577 21.047V12.0965C127.577 10.5416 126.354 9.28418 124.851 9.28418H113.556ZM111.531 9.28418H98.6404V23.8594H111.531V21.1884H101.231V17.9073H109.527V15.2363H101.231V11.9552H111.531V9.28418ZM93.8306 21.047C93.8306 21.1289 93.7734 21.1884 93.6946 21.1884H85.1058C85.0271 21.1884 84.9698 21.1289 84.9698 21.047V12.0965C84.9698 12.0147 85.0271 11.9552 85.1058 11.9552H93.6946C93.7734 11.9552 93.8306 12.0147 93.8306 12.0965V21.047ZM82.4004 9.28418V23.8594H93.6946C95.1977 23.8594 96.4216 22.602 96.4216 21.047V12.0965C96.4216 10.5416 95.1977 9.28418 93.6946 9.28418H82.4004ZM78.0916 23.8594H80.6611V9.28418H78.0916V23.8594ZM75.9945 12.0965C75.9945 10.5416 74.7706 9.28418 73.2891 9.28418H64.6788C63.1829 9.28418 61.9733 10.5416 61.9733 12.0965V15.0949C61.9733 16.6574 63.1829 17.9073 64.6788 17.9073H73.2891C73.3463 17.9073 73.4036 17.9668 73.4036 18.0487V21.047C73.4036 21.1289 73.3463 21.1884 73.2891 21.1884H64.6788C64.6001 21.1884 64.5428 21.1289 64.5428 21.047V19.931H61.9733V21.047C61.9733 22.602 63.1829 23.8594 64.6788 23.8594H73.2891C74.7706 23.8594 75.9945 22.602 75.9945 21.047V18.0487C75.9945 16.4937 74.7706 15.2363 73.2891 15.2363H64.6788C64.6001 15.2363 64.5428 15.1768 64.5428 15.0949V12.0965C64.5428 12.0147 64.6001 11.9552 64.6788 11.9552H73.2891C73.3463 11.9552 73.4036 12.0147 73.4036 12.0965V13.2126H75.9945V12.0965ZM53.2628 12.0742C53.2628 10.5341 52.0532 9.28418 50.5788 9.28418H42.6127C41.1311 9.28418 39.9287 10.5416 39.9287 12.0742V13.1233H42.4767V12.0742C42.4767 11.9924 42.534 11.9329 42.6127 11.9329H50.5788C50.6576 11.9329 50.7148 11.9924 50.7148 12.0742V14.9908C50.7148 15.0503 50.6576 15.1098 50.5788 15.1098H42.3407V17.7659H51.1443C51.2015 17.7659 51.2588 17.8254 51.2588 17.9073V21.0619C51.2588 21.1437 51.2015 21.2033 51.1443 21.2033H42.6127C42.534 21.2033 42.4767 21.1437 42.4767 21.0619V20.1914H39.9287V21.0619C39.9287 22.602 41.1383 23.852 42.6127 23.852H51.1443C52.6258 23.852 53.8139 22.5946 53.8139 21.0619V17.9073C53.8139 17.1782 53.5205 16.4937 53.0767 16.0026C53.2127 15.6976 53.27 15.3553 53.27 14.9908V12.0742H53.2628Z" fill="white"/>
</mask>
<g mask="url(#mask0_2811_4338)">
<path d="M204.699 -10.96H-5.01855V44.3202H204.699V-10.96Z" fill="white"/>
<mask id="mask1_2811_4338" style="mask-type:luminance" maskUnits="userSpaceOnUse" x="-6" y="-11" width="211" height="56">
<path d="M204.696 -10.96H-5.02148V44.3202H204.696V-10.96Z" fill="white"/>
</mask>
<g mask="url(#mask1_2811_4338)">
<path d="M200.735 5.33984H36.1523V27.6974H200.735V5.33984Z" fill="white"/>
</g>
</g>
<path d="M17.3087 17.6257C16.5142 17.6257 15.7055 16.9337 15.7055 15.6168L15.8844 5.07417L10.7025 10.2674C10.6381 10.3269 10.5593 10.3715 10.4734 10.3864C10.3088 10.4162 10.1514 10.3492 10.0512 10.2153L10.044 10.2079C9.97242 10.1111 9.9438 9.99209 9.95811 9.88049L10.2802 7.17229L10.316 7.05324L10.3876 6.9342L16.1421 0.744013L16.55 0.319926C16.7719 0.111602 17.0367 0 17.3087 0C17.5735 0 17.8383 0.111602 18.0531 0.305045L18.4682 0.736573L24.2298 6.9342L24.2943 7.03092L24.3372 7.16485L24.6664 9.86561C24.6808 9.96233 24.6593 10.0665 24.6092 10.1483C24.5233 10.3046 24.3587 10.3939 24.1869 10.3715H24.1726C24.0724 10.3641 23.9793 10.3195 23.9078 10.2451L18.7402 5.06673L18.9191 15.602C18.9119 16.9337 18.1103 17.6257 17.3087 17.6257ZM10.2945 31.9926L2.24966 29.9093L1.69138 29.7531C1.40509 29.6564 1.18321 29.4704 1.04722 29.2323C0.911234 28.9942 0.86829 28.6966 0.932706 28.4139L1.08301 27.8261L3.37336 19.5452L3.4163 19.4411L3.50935 19.3295L5.59929 17.6852C5.67086 17.6257 5.76391 17.5959 5.85696 17.5959C6.02873 17.5959 6.18619 17.7001 6.25777 17.8638L6.26492 17.8861C6.30787 17.9828 6.31502 18.087 6.29355 18.1837L4.56863 25.4229L13.272 19.9916C13.6513 19.7684 14.0306 19.6494 14.3957 19.6494C14.9754 19.6494 15.4836 19.9396 15.7556 20.4232C16.1564 21.1374 15.9846 22.2088 14.8824 22.871L6.0001 27.9823L12.9284 30.0432C13.0143 30.0656 13.0859 30.1176 13.1431 30.1846C13.2505 30.3111 13.2791 30.4971 13.2147 30.6533V30.6608C13.1718 30.7724 13.0859 30.8617 12.9785 30.9063L10.5522 31.9702L10.4377 32L10.2945 31.9926ZM24.1941 31.9926L24.0795 31.9628L21.6604 30.9063C21.5745 30.8691 21.5029 30.8021 21.4528 30.7129C21.3669 30.5566 21.3741 30.3632 21.4743 30.2144L21.4814 30.1995C21.5387 30.1176 21.6246 30.0581 21.7176 30.0284L28.6244 27.9749L19.7422 22.8635C18.64 22.2013 18.4682 21.13 18.8618 20.4157C19.1338 19.9321 19.642 19.6419 20.2217 19.6419C20.5939 19.6419 20.9661 19.7535 21.3383 19.9767L30.0488 25.408L28.3095 18.1539C28.2881 18.0646 28.2952 17.9754 28.3238 17.8861C28.3811 17.7224 28.5171 17.6108 28.6817 17.5885H28.696C28.8105 17.5736 28.9179 17.6033 29.0109 17.6777L31.1009 19.322L31.1796 19.4113L31.2369 19.5378L33.5344 27.8112L33.6847 28.3841C33.7491 28.6891 33.7062 28.9793 33.5773 29.2248C33.4413 29.4629 33.2195 29.6489 32.9546 29.7382L32.3892 29.8944L24.3372 31.9777L24.2227 31.9851L24.1941 31.9926Z" fill="white"/>
</svg>
